<?xml version="1.0" encoding="iso-8859-1"?>
<!-- Generator: Adobe Illustrator 16.0.0, SVG Export Plug-In . SVG Version: 6.00 Build 0)  -->
<!DOCTYPE svg PUBLIC "-//W3C//DTD SVG 1.1//EN" "http://www.w3.org/Graphics/SVG/1.1/DTD/svg11.dtd">
<svg version="1.1" id="Capa_1" xmlns="http://www.w3.org/2000/svg" xmlns:xlink="http://www.w3.org/1999/xlink" x="0px" y="0px"
	 width="30px" height="30px" viewBox="0 0 782.078 782.079" style="enable-background:new 0 0 782.078 782.079;"
	 xml:space="preserve">
<g>
	<g>
		<path d="M730.611,131.133H51.471C23.09,131.133,0,154.226,0,182.61v416.868c0,28.379,23.09,51.467,51.471,51.467H730.61
			c28.378,0,51.467-23.088,51.468-51.467V182.61C782.078,154.226,758.99,131.133,730.611,131.133z M762.509,599.478
			c0,17.589-14.31,31.898-31.897,31.898H51.471c-17.591,0-31.903-14.311-31.903-31.898V182.61c0-17.594,14.312-31.909,31.903-31.909
			h679.14c17.589,0,31.897,14.314,31.897,31.909V599.478z"/>
		<path d="M381.252,341.961h323.341v-67.879H381.252V341.961z M400.82,293.65h284.204v28.743H400.82V293.65z"/>
		<path d="M381.252,429.244h323.341v-67.879H381.252V429.244z M400.82,380.932h284.204v28.743H400.82V380.932z"/>
		<path d="M381.252,519.393h323.341v-67.879H381.252V519.393z M400.82,471.083h284.204v28.741H400.82V471.083z"/>
		<path d="M75.697,517.977h216.906V269.583H75.697V517.977z M102.827,498.436c7.608-14.597,31.543-27.062,61.531-30.877l17.27-2.196
			l-10.855-13.609c-9.3-11.66-14.852-31.306-14.852-52.55c0-36.248,15.543-61.508,29.494-61.508
			c13.947,0,29.488,25.26,29.488,61.508c0,21.445-5.621,41.194-15.036,52.827l-10.86,13.418l17.09,2.425
			c29.351,4.164,52.118,16.279,59.429,30.562H102.827z M273.035,289.151v187.201c-5.87-4.938-18.328-16.666-49.685-25.132
			c7.088-14.354,11.122-32.786,11.122-52.018c0-45.462-21.548-81.076-49.056-81.076c-27.511,0-49.062,35.613-49.062,81.076
			c0,19.272,3.856,37.268,10.831,51.491c-22.157,4.914-40.236,14.076-51.918,25.748V289.151H273.035z"/>
	</g>
</g>
<g>
</g>
<g>
</g>
<g>
</g>
<g>
</g>
<g>
</g>
<g>
</g>
<g>
</g>
<g>
</g>
<g>
</g>
<g>
</g>
<g>
</g>
<g>
</g>
<g>
</g>
<g>
</g>
<g>
</g>
</svg>
